# xmcd
#
# Track frame offsets: 
#        150
#        16917
#        35272
#        51972
#        78672
#        102927
#        121152
#        141707
#        159445
#        177510
#        194807
#        215332
#
# Disc length: 3134 seconds
#
# Revision: 1
# Processed by: cddbd v1.5.2PL0 Copyright (c) Steve Scherf et al.
# Submitted via: ExactAudioCopy v0.99pb5
#
DISCID=ac0c3c0c
DTITLE=Jimmy Witherspoon - The Blues, The Whole Blues And Nothing But 
DTITLE=The Blues
DYEAR=1992
DGENRE=Blues
TTITLE0=You Got A Hold Of My Heart
TTITLE1=It Never Rains But It Pours
TTITLE2=A Real Bad Day
TTITLE3=Sooner Or Later
TTITLE4=Killing Time
TTITLE5=The Blues, The Whole Blues And Nothing But The Blues
TTITLE6=Help Me Operator
TTITLE7=Would Man Be Satisfied
TTITLE8=Two Sides To Every Story
TTITLE9=Wake Up Call
TTITLE10=Think
TTITLE11=You Ain't Foolin' Me
EXTD=
EXTT0=
EXTT1=
EXTT2=
EXTT3=
EXTT4=
EXTT5=
EXTT6=
EXTT7=
EXTT8=
EXTT9=
EXTT10=
EXTT11=
PLAYORDER=
